<?xml version="1.0" standalone="no"?>
<svg xmlns="http://www.w3.org/2000/svg" version="1.1" width="594" height="594">
	<!-- Created with https://api.qrserver.com (QR Code API, see goQR.me/api for information) -->
	<title>QR Code</title>
	<desc>https://www.skita.fr/voir-categorie-collection-32.html</desc>
	<rect style="fill:rgb(255, 255, 255);fill-opacity:1" x="0" y="0" width="594" height="594" />
	<g id="elements">
		<path style="fill:rgb(0, 0, 0)" d="M 0,0 l 18,0 0,18 -18,0 z M 18,0 l 18,0 0,18 -18,0 z M 36,0 l 18,0 0,18 -18,0 z M 54,0 l 18,0 0,18 -18,0 z M 72,0 l 18,0 0,18 -18,0 z M 90,0 l 18,0 0,18 -18,0 z M 108,0 l 18,0 0,18 -18,0 z M 162,0 l 18,0 0,18 -18,0 z M 180,0 l 18,0 0,18 -18,0 z M 198,0 l 18,0 0,18 -18,0 z M 234,0 l 18,0 0,18 -18,0 z M 288,0 l 18,0 0,18 -18,0 z M 306,0 l 18,0 0,18 -18,0 z M 342,0 l 18,0 0,18 -18,0 z M 360,0 l 18,0 0,18 -18,0 z M 414,0 l 18,0 0,18 -18,0 z M 468,0 l 18,0 0,18 -18,0 z M 486,0 l 18,0 0,18 -18,0 z M 504,0 l 18,0 0,18 -18,0 z M 522,0 l 18,0 0,18 -18,0 z M 540,0 l 18,0 0,18 -18,0 z M 558,0 l 18,0 0,18 -18,0 z M 576,0 l 18,0 0,18 -18,0 z M 0,18 l 18,0 0,18 -18,0 z M 108,18 l 18,0 0,18 -18,0 z M 180,18 l 18,0 0,18 -18,0 z M 216,18 l 18,0 0,18 -18,0 z M 234,18 l 18,0 0,18 -18,0 z M 252,18 l 18,0 0,18 -18,0 z M 270,18 l 18,0 0,18 -18,0 z M 360,18 l 18,0 0,18 -18,0 z M 396,18 l 18,0 0,18 -18,0 z M 468,18 l 18,0 0,18 -18,0 z M 576,18 l 18,0 0,18 -18,0 z M 0,36 l 18,0 0,18 -18,0 z M 36,36 l 18,0 0,18 -18,0 z M 54,36 l 18,0 0,18 -18,0 z M 72,36 l 18,0 0,18 -18,0 z M 108,36 l 18,0 0,18 -18,0 z M 144,36 l 18,0 0,18 -18,0 z M 234,36 l 18,0 0,18 -18,0 z M 270,36 l 18,0 0,18 -18,0 z M 288,36 l 18,0 0,18 -18,0 z M 342,36 l 18,0 0,18 -18,0 z M 360,36 l 18,0 0,18 -18,0 z M 378,36 l 18,0 0,18 -18,0 z M 396,36 l 18,0 0,18 -18,0 z M 414,36 l 18,0 0,18 -18,0 z M 432,36 l 18,0 0,18 -18,0 z M 468,36 l 18,0 0,18 -18,0 z M 504,36 l 18,0 0,18 -18,0 z M 522,36 l 18,0 0,18 -18,0 z M 540,36 l 18,0 0,18 -18,0 z M 576,36 l 18,0 0,18 -18,0 z M 0,54 l 18,0 0,18 -18,0 z M 36,54 l 18,0 0,18 -18,0 z M 54,54 l 18,0 0,18 -18,0 z M 72,54 l 18,0 0,18 -18,0 z M 108,54 l 18,0 0,18 -18,0 z M 144,54 l 18,0 0,18 -18,0 z M 162,54 l 18,0 0,18 -18,0 z M 198,54 l 18,0 0,18 -18,0 z M 252,54 l 18,0 0,18 -18,0 z M 270,54 l 18,0 0,18 -18,0 z M 288,54 l 18,0 0,18 -18,0 z M 306,54 l 18,0 0,18 -18,0 z M 342,54 l 18,0 0,18 -18,0 z M 396,54 l 18,0 0,18 -18,0 z M 432,54 l 18,0 0,18 -18,0 z M 468,54 l 18,0 0,18 -18,0 z M 504,54 l 18,0 0,18 -18,0 z M 522,54 l 18,0 0,18 -18,0 z M 540,54 l 18,0 0,18 -18,0 z M 576,54 l 18,0 0,18 -18,0 z M 0,72 l 18,0 0,18 -18,0 z M 36,72 l 18,0 0,18 -18,0 z M 54,72 l 18,0 0,18 -18,0 z M 72,72 l 18,0 0,18 -18,0 z M 108,72 l 18,0 0,18 -18,0 z M 144,72 l 18,0 0,18 -18,0 z M 216,72 l 18,0 0,18 -18,0 z M 270,72 l 18,0 0,18 -18,0 z M 324,72 l 18,0 0,18 -18,0 z M 342,72 l 18,0 0,18 -18,0 z M 360,72 l 18,0 0,18 -18,0 z M 414,72 l 18,0 0,18 -18,0 z M 468,72 l 18,0 0,18 -18,0 z M 504,72 l 18,0 0,18 -18,0 z M 522,72 l 18,0 0,18 -18,0 z M 540,72 l 18,0 0,18 -18,0 z M 576,72 l 18,0 0,18 -18,0 z M 0,90 l 18,0 0,18 -18,0 z M 108,90 l 18,0 0,18 -18,0 z M 144,90 l 18,0 0,18 -18,0 z M 162,90 l 18,0 0,18 -18,0 z M 252,90 l 18,0 0,18 -18,0 z M 270,90 l 18,0 0,18 -18,0 z M 288,90 l 18,0 0,18 -18,0 z M 306,90 l 18,0 0,18 -18,0 z M 468,90 l 18,0 0,18 -18,0 z M 576,90 l 18,0 0,18 -18,0 z M 0,108 l 18,0 0,18 -18,0 z M 18,108 l 18,0 0,18 -18,0 z M 36,108 l 18,0 0,18 -18,0 z M 54,108 l 18,0 0,18 -18,0 z M 72,108 l 18,0 0,18 -18,0 z M 90,108 l 18,0 0,18 -18,0 z M 108,108 l 18,0 0,18 -18,0 z M 144,108 l 18,0 0,18 -18,0 z M 180,108 l 18,0 0,18 -18,0 z M 216,108 l 18,0 0,18 -18,0 z M 252,108 l 18,0 0,18 -18,0 z M 288,108 l 18,0 0,18 -18,0 z M 324,108 l 18,0 0,18 -18,0 z M 360,108 l 18,0 0,18 -18,0 z M 396,108 l 18,0 0,18 -18,0 z M 432,108 l 18,0 0,18 -18,0 z M 468,108 l 18,0 0,18 -18,0 z M 486,108 l 18,0 0,18 -18,0 z M 504,108 l 18,0 0,18 -18,0 z M 522,108 l 18,0 0,18 -18,0 z M 540,108 l 18,0 0,18 -18,0 z M 558,108 l 18,0 0,18 -18,0 z M 576,108 l 18,0 0,18 -18,0 z M 144,126 l 18,0 0,18 -18,0 z M 162,126 l 18,0 0,18 -18,0 z M 180,126 l 18,0 0,18 -18,0 z M 216,126 l 18,0 0,18 -18,0 z M 252,126 l 18,0 0,18 -18,0 z M 270,126 l 18,0 0,18 -18,0 z M 324,126 l 18,0 0,18 -18,0 z M 360,126 l 18,0 0,18 -18,0 z M 378,126 l 18,0 0,18 -18,0 z M 396,126 l 18,0 0,18 -18,0 z M 432,126 l 18,0 0,18 -18,0 z M 0,144 l 18,0 0,18 -18,0 z M 36,144 l 18,0 0,18 -18,0 z M 54,144 l 18,0 0,18 -18,0 z M 72,144 l 18,0 0,18 -18,0 z M 90,144 l 18,0 0,18 -18,0 z M 108,144 l 18,0 0,18 -18,0 z M 162,144 l 18,0 0,18 -18,0 z M 198,144 l 18,0 0,18 -18,0 z M 234,144 l 18,0 0,18 -18,0 z M 252,144 l 18,0 0,18 -18,0 z M 270,144 l 18,0 0,18 -18,0 z M 288,144 l 18,0 0,18 -18,0 z M 306,144 l 18,0 0,18 -18,0 z M 396,144 l 18,0 0,18 -18,0 z M 414,144 l 18,0 0,18 -18,0 z M 468,144 l 18,0 0,18 -18,0 z M 486,144 l 18,0 0,18 -18,0 z M 504,144 l 18,0 0,18 -18,0 z M 522,144 l 18,0 0,18 -18,0 z M 540,144 l 18,0 0,18 -18,0 z M 54,162 l 18,0 0,18 -18,0 z M 162,162 l 18,0 0,18 -18,0 z M 288,162 l 18,0 0,18 -18,0 z M 306,162 l 18,0 0,18 -18,0 z M 324,162 l 18,0 0,18 -18,0 z M 342,162 l 18,0 0,18 -18,0 z M 414,162 l 18,0 0,18 -18,0 z M 468,162 l 18,0 0,18 -18,0 z M 486,162 l 18,0 0,18 -18,0 z M 522,162 l 18,0 0,18 -18,0 z M 540,162 l 18,0 0,18 -18,0 z M 576,162 l 18,0 0,18 -18,0 z M 54,180 l 18,0 0,18 -18,0 z M 90,180 l 18,0 0,18 -18,0 z M 108,180 l 18,0 0,18 -18,0 z M 126,180 l 18,0 0,18 -18,0 z M 180,180 l 18,0 0,18 -18,0 z M 198,180 l 18,0 0,18 -18,0 z M 216,180 l 18,0 0,18 -18,0 z M 270,180 l 18,0 0,18 -18,0 z M 288,180 l 18,0 0,18 -18,0 z M 396,180 l 18,0 0,18 -18,0 z M 432,180 l 18,0 0,18 -18,0 z M 450,180 l 18,0 0,18 -18,0 z M 468,180 l 18,0 0,18 -18,0 z M 504,180 l 18,0 0,18 -18,0 z M 540,180 l 18,0 0,18 -18,0 z M 558,180 l 18,0 0,18 -18,0 z M 0,198 l 18,0 0,18 -18,0 z M 72,198 l 18,0 0,18 -18,0 z M 90,198 l 18,0 0,18 -18,0 z M 198,198 l 18,0 0,18 -18,0 z M 252,198 l 18,0 0,18 -18,0 z M 270,198 l 18,0 0,18 -18,0 z M 324,198 l 18,0 0,18 -18,0 z M 342,198 l 18,0 0,18 -18,0 z M 378,198 l 18,0 0,18 -18,0 z M 414,198 l 18,0 0,18 -18,0 z M 504,198 l 18,0 0,18 -18,0 z M 522,198 l 18,0 0,18 -18,0 z M 540,198 l 18,0 0,18 -18,0 z M 576,198 l 18,0 0,18 -18,0 z M 0,216 l 18,0 0,18 -18,0 z M 72,216 l 18,0 0,18 -18,0 z M 108,216 l 18,0 0,18 -18,0 z M 126,216 l 18,0 0,18 -18,0 z M 180,216 l 18,0 0,18 -18,0 z M 270,216 l 18,0 0,18 -18,0 z M 324,216 l 18,0 0,18 -18,0 z M 360,216 l 18,0 0,18 -18,0 z M 414,216 l 18,0 0,18 -18,0 z M 432,216 l 18,0 0,18 -18,0 z M 450,216 l 18,0 0,18 -18,0 z M 486,216 l 18,0 0,18 -18,0 z M 504,216 l 18,0 0,18 -18,0 z M 522,216 l 18,0 0,18 -18,0 z M 0,234 l 18,0 0,18 -18,0 z M 36,234 l 18,0 0,18 -18,0 z M 54,234 l 18,0 0,18 -18,0 z M 126,234 l 18,0 0,18 -18,0 z M 162,234 l 18,0 0,18 -18,0 z M 198,234 l 18,0 0,18 -18,0 z M 234,234 l 18,0 0,18 -18,0 z M 252,234 l 18,0 0,18 -18,0 z M 270,234 l 18,0 0,18 -18,0 z M 288,234 l 18,0 0,18 -18,0 z M 306,234 l 18,0 0,18 -18,0 z M 324,234 l 18,0 0,18 -18,0 z M 342,234 l 18,0 0,18 -18,0 z M 360,234 l 18,0 0,18 -18,0 z M 414,234 l 18,0 0,18 -18,0 z M 468,234 l 18,0 0,18 -18,0 z M 558,234 l 18,0 0,18 -18,0 z M 576,234 l 18,0 0,18 -18,0 z M 18,252 l 18,0 0,18 -18,0 z M 108,252 l 18,0 0,18 -18,0 z M 162,252 l 18,0 0,18 -18,0 z M 216,252 l 18,0 0,18 -18,0 z M 306,252 l 18,0 0,18 -18,0 z M 378,252 l 18,0 0,18 -18,0 z M 432,252 l 18,0 0,18 -18,0 z M 450,252 l 18,0 0,18 -18,0 z M 468,252 l 18,0 0,18 -18,0 z M 504,252 l 18,0 0,18 -18,0 z M 522,252 l 18,0 0,18 -18,0 z M 540,252 l 18,0 0,18 -18,0 z M 558,252 l 18,0 0,18 -18,0 z M 54,270 l 18,0 0,18 -18,0 z M 72,270 l 18,0 0,18 -18,0 z M 90,270 l 18,0 0,18 -18,0 z M 126,270 l 18,0 0,18 -18,0 z M 144,270 l 18,0 0,18 -18,0 z M 162,270 l 18,0 0,18 -18,0 z M 198,270 l 18,0 0,18 -18,0 z M 216,270 l 18,0 0,18 -18,0 z M 234,270 l 18,0 0,18 -18,0 z M 288,270 l 18,0 0,18 -18,0 z M 378,270 l 18,0 0,18 -18,0 z M 396,270 l 18,0 0,18 -18,0 z M 450,270 l 18,0 0,18 -18,0 z M 468,270 l 18,0 0,18 -18,0 z M 504,270 l 18,0 0,18 -18,0 z M 522,270 l 18,0 0,18 -18,0 z M 540,270 l 18,0 0,18 -18,0 z M 0,288 l 18,0 0,18 -18,0 z M 36,288 l 18,0 0,18 -18,0 z M 72,288 l 18,0 0,18 -18,0 z M 108,288 l 18,0 0,18 -18,0 z M 126,288 l 18,0 0,18 -18,0 z M 144,288 l 18,0 0,18 -18,0 z M 162,288 l 18,0 0,18 -18,0 z M 216,288 l 18,0 0,18 -18,0 z M 234,288 l 18,0 0,18 -18,0 z M 252,288 l 18,0 0,18 -18,0 z M 306,288 l 18,0 0,18 -18,0 z M 342,288 l 18,0 0,18 -18,0 z M 360,288 l 18,0 0,18 -18,0 z M 396,288 l 18,0 0,18 -18,0 z M 432,288 l 18,0 0,18 -18,0 z M 450,288 l 18,0 0,18 -18,0 z M 486,288 l 18,0 0,18 -18,0 z M 504,288 l 18,0 0,18 -18,0 z M 576,288 l 18,0 0,18 -18,0 z M 0,306 l 18,0 0,18 -18,0 z M 18,306 l 18,0 0,18 -18,0 z M 90,306 l 18,0 0,18 -18,0 z M 126,306 l 18,0 0,18 -18,0 z M 144,306 l 18,0 0,18 -18,0 z M 162,306 l 18,0 0,18 -18,0 z M 216,306 l 18,0 0,18 -18,0 z M 288,306 l 18,0 0,18 -18,0 z M 306,306 l 18,0 0,18 -18,0 z M 324,306 l 18,0 0,18 -18,0 z M 342,306 l 18,0 0,18 -18,0 z M 360,306 l 18,0 0,18 -18,0 z M 396,306 l 18,0 0,18 -18,0 z M 414,306 l 18,0 0,18 -18,0 z M 432,306 l 18,0 0,18 -18,0 z M 450,306 l 18,0 0,18 -18,0 z M 468,306 l 18,0 0,18 -18,0 z M 486,306 l 18,0 0,18 -18,0 z M 522,306 l 18,0 0,18 -18,0 z M 540,306 l 18,0 0,18 -18,0 z M 558,306 l 18,0 0,18 -18,0 z M 576,306 l 18,0 0,18 -18,0 z M 18,324 l 18,0 0,18 -18,0 z M 54,324 l 18,0 0,18 -18,0 z M 72,324 l 18,0 0,18 -18,0 z M 90,324 l 18,0 0,18 -18,0 z M 108,324 l 18,0 0,18 -18,0 z M 198,324 l 18,0 0,18 -18,0 z M 234,324 l 18,0 0,18 -18,0 z M 252,324 l 18,0 0,18 -18,0 z M 270,324 l 18,0 0,18 -18,0 z M 288,324 l 18,0 0,18 -18,0 z M 306,324 l 18,0 0,18 -18,0 z M 378,324 l 18,0 0,18 -18,0 z M 396,324 l 18,0 0,18 -18,0 z M 450,324 l 18,0 0,18 -18,0 z M 468,324 l 18,0 0,18 -18,0 z M 486,324 l 18,0 0,18 -18,0 z M 504,324 l 18,0 0,18 -18,0 z M 540,324 l 18,0 0,18 -18,0 z M 558,324 l 18,0 0,18 -18,0 z M 54,342 l 18,0 0,18 -18,0 z M 72,342 l 18,0 0,18 -18,0 z M 126,342 l 18,0 0,18 -18,0 z M 144,342 l 18,0 0,18 -18,0 z M 180,342 l 18,0 0,18 -18,0 z M 198,342 l 18,0 0,18 -18,0 z M 216,342 l 18,0 0,18 -18,0 z M 234,342 l 18,0 0,18 -18,0 z M 306,342 l 18,0 0,18 -18,0 z M 324,342 l 18,0 0,18 -18,0 z M 342,342 l 18,0 0,18 -18,0 z M 360,342 l 18,0 0,18 -18,0 z M 378,342 l 18,0 0,18 -18,0 z M 396,342 l 18,0 0,18 -18,0 z M 414,342 l 18,0 0,18 -18,0 z M 486,342 l 18,0 0,18 -18,0 z M 504,342 l 18,0 0,18 -18,0 z M 522,342 l 18,0 0,18 -18,0 z M 540,342 l 18,0 0,18 -18,0 z M 558,342 l 18,0 0,18 -18,0 z M 576,342 l 18,0 0,18 -18,0 z M 0,360 l 18,0 0,18 -18,0 z M 54,360 l 18,0 0,18 -18,0 z M 72,360 l 18,0 0,18 -18,0 z M 90,360 l 18,0 0,18 -18,0 z M 108,360 l 18,0 0,18 -18,0 z M 162,360 l 18,0 0,18 -18,0 z M 216,360 l 18,0 0,18 -18,0 z M 234,360 l 18,0 0,18 -18,0 z M 252,360 l 18,0 0,18 -18,0 z M 270,360 l 18,0 0,18 -18,0 z M 288,360 l 18,0 0,18 -18,0 z M 450,360 l 18,0 0,18 -18,0 z M 486,360 l 18,0 0,18 -18,0 z M 504,360 l 18,0 0,18 -18,0 z M 522,360 l 18,0 0,18 -18,0 z M 558,360 l 18,0 0,18 -18,0 z M 576,360 l 18,0 0,18 -18,0 z M 0,378 l 18,0 0,18 -18,0 z M 36,378 l 18,0 0,18 -18,0 z M 54,378 l 18,0 0,18 -18,0 z M 144,378 l 18,0 0,18 -18,0 z M 216,378 l 18,0 0,18 -18,0 z M 234,378 l 18,0 0,18 -18,0 z M 252,378 l 18,0 0,18 -18,0 z M 270,378 l 18,0 0,18 -18,0 z M 306,378 l 18,0 0,18 -18,0 z M 324,378 l 18,0 0,18 -18,0 z M 342,378 l 18,0 0,18 -18,0 z M 360,378 l 18,0 0,18 -18,0 z M 378,378 l 18,0 0,18 -18,0 z M 396,378 l 18,0 0,18 -18,0 z M 414,378 l 18,0 0,18 -18,0 z M 468,378 l 18,0 0,18 -18,0 z M 522,378 l 18,0 0,18 -18,0 z M 540,378 l 18,0 0,18 -18,0 z M 576,378 l 18,0 0,18 -18,0 z M 0,396 l 18,0 0,18 -18,0 z M 36,396 l 18,0 0,18 -18,0 z M 54,396 l 18,0 0,18 -18,0 z M 108,396 l 18,0 0,18 -18,0 z M 126,396 l 18,0 0,18 -18,0 z M 162,396 l 18,0 0,18 -18,0 z M 180,396 l 18,0 0,18 -18,0 z M 234,396 l 18,0 0,18 -18,0 z M 252,396 l 18,0 0,18 -18,0 z M 270,396 l 18,0 0,18 -18,0 z M 288,396 l 18,0 0,18 -18,0 z M 324,396 l 18,0 0,18 -18,0 z M 378,396 l 18,0 0,18 -18,0 z M 396,396 l 18,0 0,18 -18,0 z M 450,396 l 18,0 0,18 -18,0 z M 504,396 l 18,0 0,18 -18,0 z M 522,396 l 18,0 0,18 -18,0 z M 540,396 l 18,0 0,18 -18,0 z M 558,396 l 18,0 0,18 -18,0 z M 0,414 l 18,0 0,18 -18,0 z M 36,414 l 18,0 0,18 -18,0 z M 54,414 l 18,0 0,18 -18,0 z M 162,414 l 18,0 0,18 -18,0 z M 180,414 l 18,0 0,18 -18,0 z M 198,414 l 18,0 0,18 -18,0 z M 234,414 l 18,0 0,18 -18,0 z M 270,414 l 18,0 0,18 -18,0 z M 342,414 l 18,0 0,18 -18,0 z M 360,414 l 18,0 0,18 -18,0 z M 378,414 l 18,0 0,18 -18,0 z M 414,414 l 18,0 0,18 -18,0 z M 432,414 l 18,0 0,18 -18,0 z M 450,414 l 18,0 0,18 -18,0 z M 468,414 l 18,0 0,18 -18,0 z M 486,414 l 18,0 0,18 -18,0 z M 540,414 l 18,0 0,18 -18,0 z M 576,414 l 18,0 0,18 -18,0 z M 0,432 l 18,0 0,18 -18,0 z M 54,432 l 18,0 0,18 -18,0 z M 90,432 l 18,0 0,18 -18,0 z M 108,432 l 18,0 0,18 -18,0 z M 126,432 l 18,0 0,18 -18,0 z M 180,432 l 18,0 0,18 -18,0 z M 234,432 l 18,0 0,18 -18,0 z M 270,432 l 18,0 0,18 -18,0 z M 306,432 l 18,0 0,18 -18,0 z M 342,432 l 18,0 0,18 -18,0 z M 396,432 l 18,0 0,18 -18,0 z M 432,432 l 18,0 0,18 -18,0 z M 450,432 l 18,0 0,18 -18,0 z M 468,432 l 18,0 0,18 -18,0 z M 486,432 l 18,0 0,18 -18,0 z M 504,432 l 18,0 0,18 -18,0 z M 558,432 l 18,0 0,18 -18,0 z M 144,450 l 18,0 0,18 -18,0 z M 216,450 l 18,0 0,18 -18,0 z M 288,450 l 18,0 0,18 -18,0 z M 342,450 l 18,0 0,18 -18,0 z M 360,450 l 18,0 0,18 -18,0 z M 378,450 l 18,0 0,18 -18,0 z M 414,450 l 18,0 0,18 -18,0 z M 432,450 l 18,0 0,18 -18,0 z M 504,450 l 18,0 0,18 -18,0 z M 540,450 l 18,0 0,18 -18,0 z M 576,450 l 18,0 0,18 -18,0 z M 0,468 l 18,0 0,18 -18,0 z M 18,468 l 18,0 0,18 -18,0 z M 36,468 l 18,0 0,18 -18,0 z M 54,468 l 18,0 0,18 -18,0 z M 72,468 l 18,0 0,18 -18,0 z M 90,468 l 18,0 0,18 -18,0 z M 108,468 l 18,0 0,18 -18,0 z M 162,468 l 18,0 0,18 -18,0 z M 180,468 l 18,0 0,18 -18,0 z M 198,468 l 18,0 0,18 -18,0 z M 234,468 l 18,0 0,18 -18,0 z M 270,468 l 18,0 0,18 -18,0 z M 288,468 l 18,0 0,18 -18,0 z M 324,468 l 18,0 0,18 -18,0 z M 414,468 l 18,0 0,18 -18,0 z M 432,468 l 18,0 0,18 -18,0 z M 468,468 l 18,0 0,18 -18,0 z M 504,468 l 18,0 0,18 -18,0 z M 540,468 l 18,0 0,18 -18,0 z M 558,468 l 18,0 0,18 -18,0 z M 0,486 l 18,0 0,18 -18,0 z M 108,486 l 18,0 0,18 -18,0 z M 144,486 l 18,0 0,18 -18,0 z M 198,486 l 18,0 0,18 -18,0 z M 216,486 l 18,0 0,18 -18,0 z M 234,486 l 18,0 0,18 -18,0 z M 270,486 l 18,0 0,18 -18,0 z M 288,486 l 18,0 0,18 -18,0 z M 342,486 l 18,0 0,18 -18,0 z M 360,486 l 18,0 0,18 -18,0 z M 378,486 l 18,0 0,18 -18,0 z M 396,486 l 18,0 0,18 -18,0 z M 414,486 l 18,0 0,18 -18,0 z M 432,486 l 18,0 0,18 -18,0 z M 504,486 l 18,0 0,18 -18,0 z M 522,486 l 18,0 0,18 -18,0 z M 540,486 l 18,0 0,18 -18,0 z M 558,486 l 18,0 0,18 -18,0 z M 576,486 l 18,0 0,18 -18,0 z M 0,504 l 18,0 0,18 -18,0 z M 36,504 l 18,0 0,18 -18,0 z M 54,504 l 18,0 0,18 -18,0 z M 72,504 l 18,0 0,18 -18,0 z M 108,504 l 18,0 0,18 -18,0 z M 144,504 l 18,0 0,18 -18,0 z M 162,504 l 18,0 0,18 -18,0 z M 180,504 l 18,0 0,18 -18,0 z M 216,504 l 18,0 0,18 -18,0 z M 234,504 l 18,0 0,18 -18,0 z M 324,504 l 18,0 0,18 -18,0 z M 342,504 l 18,0 0,18 -18,0 z M 432,504 l 18,0 0,18 -18,0 z M 450,504 l 18,0 0,18 -18,0 z M 468,504 l 18,0 0,18 -18,0 z M 486,504 l 18,0 0,18 -18,0 z M 504,504 l 18,0 0,18 -18,0 z M 522,504 l 18,0 0,18 -18,0 z M 558,504 l 18,0 0,18 -18,0 z M 0,522 l 18,0 0,18 -18,0 z M 36,522 l 18,0 0,18 -18,0 z M 54,522 l 18,0 0,18 -18,0 z M 72,522 l 18,0 0,18 -18,0 z M 108,522 l 18,0 0,18 -18,0 z M 144,522 l 18,0 0,18 -18,0 z M 180,522 l 18,0 0,18 -18,0 z M 216,522 l 18,0 0,18 -18,0 z M 234,522 l 18,0 0,18 -18,0 z M 270,522 l 18,0 0,18 -18,0 z M 288,522 l 18,0 0,18 -18,0 z M 342,522 l 18,0 0,18 -18,0 z M 378,522 l 18,0 0,18 -18,0 z M 396,522 l 18,0 0,18 -18,0 z M 414,522 l 18,0 0,18 -18,0 z M 450,522 l 18,0 0,18 -18,0 z M 504,522 l 18,0 0,18 -18,0 z M 522,522 l 18,0 0,18 -18,0 z M 558,522 l 18,0 0,18 -18,0 z M 576,522 l 18,0 0,18 -18,0 z M 0,540 l 18,0 0,18 -18,0 z M 36,540 l 18,0 0,18 -18,0 z M 54,540 l 18,0 0,18 -18,0 z M 72,540 l 18,0 0,18 -18,0 z M 108,540 l 18,0 0,18 -18,0 z M 144,540 l 18,0 0,18 -18,0 z M 162,540 l 18,0 0,18 -18,0 z M 198,540 l 18,0 0,18 -18,0 z M 234,540 l 18,0 0,18 -18,0 z M 306,540 l 18,0 0,18 -18,0 z M 324,540 l 18,0 0,18 -18,0 z M 378,540 l 18,0 0,18 -18,0 z M 414,540 l 18,0 0,18 -18,0 z M 432,540 l 18,0 0,18 -18,0 z M 450,540 l 18,0 0,18 -18,0 z M 468,540 l 18,0 0,18 -18,0 z M 486,540 l 18,0 0,18 -18,0 z M 522,540 l 18,0 0,18 -18,0 z M 540,540 l 18,0 0,18 -18,0 z M 0,558 l 18,0 0,18 -18,0 z M 108,558 l 18,0 0,18 -18,0 z M 162,558 l 18,0 0,18 -18,0 z M 198,558 l 18,0 0,18 -18,0 z M 288,558 l 18,0 0,18 -18,0 z M 324,558 l 18,0 0,18 -18,0 z M 342,558 l 18,0 0,18 -18,0 z M 378,558 l 18,0 0,18 -18,0 z M 396,558 l 18,0 0,18 -18,0 z M 450,558 l 18,0 0,18 -18,0 z M 504,558 l 18,0 0,18 -18,0 z M 522,558 l 18,0 0,18 -18,0 z M 540,558 l 18,0 0,18 -18,0 z M 0,576 l 18,0 0,18 -18,0 z M 18,576 l 18,0 0,18 -18,0 z M 36,576 l 18,0 0,18 -18,0 z M 54,576 l 18,0 0,18 -18,0 z M 72,576 l 18,0 0,18 -18,0 z M 90,576 l 18,0 0,18 -18,0 z M 108,576 l 18,0 0,18 -18,0 z M 144,576 l 18,0 0,18 -18,0 z M 162,576 l 18,0 0,18 -18,0 z M 216,576 l 18,0 0,18 -18,0 z M 252,576 l 18,0 0,18 -18,0 z M 306,576 l 18,0 0,18 -18,0 z M 324,576 l 18,0 0,18 -18,0 z M 414,576 l 18,0 0,18 -18,0 z M 432,576 l 18,0 0,18 -18,0 z M 450,576 l 18,0 0,18 -18,0 z M 486,576 l 18,0 0,18 -18,0 z M 558,576 l 18,0 0,18 -18,0 z " />
	</g>
</svg>
